<svg class="icon" viewBox="0 0 1365 1024" xmlns="http://www.w3.org/2000/svg" width="266.602" height="200"><defs><style/></defs><path d="M1113.906 1.439c-3.202 0-4.948 1.164-5.822 2.329L986.702 177.836c-7.568 10.77-19.502 17.174-32.31 17.174H682.811c-12.226 0-23.578-5.822-31.146-15.719L514.273.566c-.29-.291-1.164-.874-2.328-.874s-2.038.292-2.62.583l-26.489 954.464c-.582 22.122-18.338 39.878-39.878 39.878h-.291c-44.536-.291-88.199-10.188-130.115-28.817-.29 0-.582-.291-.873-.291-50.358-23.87-78.302-66.076-80.048-121.673-1.456-41.625 11.643-83.833 22.122-117.598 2.329-7.86 4.658-15.137 6.404-21.54 17.465-62.001 25.033-117.89 23.578-176.106-2.038-84.415-59.672-156.603-143.504-180.181-2.038-.582-3.785-.873-5.531-.873-9.024 0-12.808 11.643-13.39 16.3-1.746 12.808 5.822 14.846 9.897 16.01 46.573 13.099 80.63 38.714 101.006 76.555 43.372 80.048 12.226 187.75-10.479 266.342-1.746 6.112-3.493 11.934-5.24 17.756-18.92 66.95-19.211 112.067-1.455 167.082 29.4 90.527 141.176 114.396 229.956 118.762 2.329 0 4.367.291 6.113.582h662.507c10.188 0 19.794-4.075 27.07-11.934 7.278-7.568 10.77-17.465 10.77-27.653l-29.98-980.953c-.292-4.657-7.278-4.948-7.569-4.948zM675.243 521.606c-62.874 0-114.105-51.231-114.105-114.105s51.23-114.105 114.105-114.105 114.105 51.23 114.105 114.105-51.231 114.105-114.105 114.105zm300.69 0c-62.875 0-114.106-51.231-114.106-114.105s51.231-114.105 114.105-114.105 114.105 51.23 114.105 114.105-50.94 114.105-114.105 114.105zm0 0" fill="#1296db"/><path d="M675.243 364.13c-23.87 0-43.372 19.502-43.372 43.37s19.503 43.372 43.372 43.372 43.371-19.502 43.371-43.371c-.29-23.869-19.502-43.372-43.371-43.372zm300.69 0c-23.87 0-43.372 19.502-43.372 43.37s19.502 43.372 43.371 43.372 43.372-19.502 43.372-43.371-19.503-43.372-43.372-43.372zm0 0" fill="#1296db"/></svg>